<?xml version="1.0" standalone="no"?>
<!DOCTYPE svg PUBLIC "-//W3C//DTD SVG 20010904//EN"
 "http://www.w3.org/TR/2001/REC-SVG-20010904/DTD/svg10.dtd">
<svg version="1.0" xmlns="http://www.w3.org/2000/svg"
 width="187.000000pt" height="177.000000pt" viewBox="0 0 187.000000 177.000000"
 preserveAspectRatio="xMidYMid meet">

<g transform="translate(0.000000,177.000000) scale(0.100000,-0.100000)"
fill="#000000" stroke="none">
<path d="M320 1604 c-65 -30 -113 -74 -143 -129 -22 -40 -22 -45 -22 -585 l0
-545 30 -54 c37 -68 102 -125 168 -148 48 -16 98 -18 597 -18 l545 0 57 28
c82 40 149 123 162 199 l5 33 -10 -31 c-22 -64 -81 -127 -153 -164 -66 -33
-74 -35 -185 -37 -64 -1 -107 1 -96 4 43 11 50 29 60 147 3 33 10 63 16 67 6
3 10 17 8 30 -4 31 10 71 22 64 8 -6 13 9 10 29 -1 4 3 14 9 21 8 9 7 14 -4
18 -8 3 -18 0 -23 -6 -26 -37 -44 -80 -39 -92 3 -8 0 -12 -8 -9 -7 3 -18 20
-25 39 -14 39 -63 85 -92 85 -10 0 -19 5 -19 10 0 6 7 10 15 10 22 0 81 56
100 97 l17 36 13 -36 c16 -46 34 -69 48 -60 6 3 7 1 3 -5 -4 -7 3 -17 18 -24
14 -6 26 -15 26 -20 0 -4 5 -8 10 -8 19 0 10 17 -15 30 -18 9 -22 16 -13 21 7
4 16 5 20 3 4 -3 5 3 1 12 -3 10 -2 15 3 12 5 -3 20 11 33 31 21 32 21 34 3
17 -39 -35 -74 1 -52 54 11 28 30 41 30 22 0 -5 6 -16 13 -27 11 -14 16 -15
22 -5 5 8 4 11 -2 7 -6 -4 -14 0 -17 9 -9 22 -8 24 9 18 19 -8 19 0 -2 34 -24
38 -23 38 -32 23 -7 -10 -10 -9 -14 3 -5 12 0 16 24 16 17 0 28 4 24 9 -3 5 0
13 7 17 12 8 -13 22 -42 23 -11 1 -11 -2 -2 -11 15 -15 15 -28 1 -28 -5 0 -8
4 -5 9 3 5 -1 12 -10 15 -22 9 -26 8 -18 -5 5 -8 0 -10 -17 -6 -59 15 -195
-43 -269 -113 -60 -57 -95 -126 -136 -265 -18 -60 -34 -103 -37 -95 -3 8 -15
52 -26 97 -56 230 -189 355 -416 388 -25 4 -45 10 -45 14 0 4 26 12 58 19 231
49 354 182 411 447 19 84 20 84 41 -15 50 -234 162 -364 357 -414 34 -9 75
-16 91 -16 17 0 34 -4 37 -10 11 -18 33 -11 38 13 4 12 5 25 4 28 -1 3 4 13
12 22 9 12 10 17 2 17 -7 0 -1 15 13 33 15 19 26 41 26 50 0 9 5 19 10 22 6 4
9 20 6 36 -4 27 -2 29 17 24 13 -4 17 -3 11 2 -6 4 -14 18 -18 31 -6 17 -3 22
9 22 12 0 16 6 12 20 -3 10 -2 19 2 18 3 -1 17 3 31 9 20 8 12 11 -50 15 -122
8 -206 63 -251 163 -18 41 -25 138 -13 188 l6 27 -473 0 -474 0 -55 -26z m363
-324 l40 -18 -36 -16 c-25 -10 -42 -27 -54 -50 -9 -20 -19 -36 -22 -36 -3 0
-13 15 -21 33 -9 20 -31 40 -57 53 l-41 21 33 16 c22 10 42 32 56 59 l22 42
20 -43 c15 -32 31 -48 60 -61z m-196 -199 c20 -10 24 -15 13 -19 -24 -8 -60
-44 -60 -61 0 -10 -10 -4 -26 17 -15 19 -38 38 -52 43 l-26 10 32 19 c18 11
37 32 43 48 l11 27 18 -36 c10 -19 31 -41 47 -48z"/>
</g>
</svg>
